<svg width="81" height="81" viewBox="0 0 81 81" fill="none" xmlns="http://www.w3.org/2000/svg">
<ellipse cx="40.2621" cy="40.154" rx="29" ry="28.0466" transform="rotate(-40.3998 40.2621 40.154)" fill="#EB4C8A"/>
<path d="M21.7039 19.1195C17.4113 22.7728 14.2811 27.5967 12.7093 32.9812C11.1375 38.3657 11.1946 44.069 12.8734 49.3698C14.5522 54.6706 17.7772 59.3309 22.1408 62.7614C26.5043 66.1918 31.8103 68.2383 37.3878 68.6421C42.9653 69.0459 48.5638 67.7888 53.4754 65.0298C58.3869 62.2709 62.3908 58.1339 64.9809 53.1421C67.571 48.1504 68.6308 42.5279 68.0264 36.9859C67.4219 31.4438 65.1804 26.231 61.5853 22.0067C56.7594 16.3496 49.8503 12.8686 42.3737 12.3274C34.8971 11.7861 27.4636 14.2288 21.7039 19.1195ZM57.1088 23.1858L47.9467 30.9834C44.9754 26.7049 43.233 21.6858 42.9039 16.4582C48.2874 17.0335 53.2912 19.4033 57.1088 23.1858ZM40.1333 37.6331L25.9159 20.9276C29.7082 18.2013 34.1917 16.6125 38.8279 16.3521C39.1344 22.5892 41.2224 28.5809 44.8461 33.6221L40.1333 37.6331ZM37.0327 40.2718L32.3199 44.2828C27.9229 39.8996 22.342 36.8805 16.2342 35.5808C17.2332 31.0462 19.5188 26.8749 22.8166 23.5679L37.0327 40.2718ZM39.6295 43.3231L53.8469 60.0285C50.0546 62.7549 45.5711 64.3437 40.9348 64.604C40.6283 58.367 38.5404 52.3752 34.9166 47.334L39.6295 43.3231ZM42.73 40.6843L47.4429 36.6734C51.8405 41.0563 57.4218 44.0749 63.5301 45.374C62.5309 49.9093 60.2448 54.081 56.9461 57.3882L42.73 40.6843ZM15.6842 39.6239C20.7928 40.7833 25.4697 43.3049 29.2193 46.9215L20.0587 54.7178C16.9347 50.3456 15.3943 45.0283 15.6857 39.6226L15.6842 39.6239ZM22.6539 57.7703L31.8161 49.9727C34.7873 54.2513 36.5298 59.2703 36.8588 64.4979C31.4753 63.9227 26.4715 61.5528 22.6539 57.7703ZM64.0786 41.3322C58.97 40.1729 54.293 37.6512 50.5434 34.0346L59.7025 26.2397C62.8265 30.6118 64.3669 35.9291 64.0755 41.3348L64.0786 41.3322Z" fill="#C32261"/>
</svg>
